<?xml version="1.0" encoding="utf-8"?>
<!-- Generator: Adobe Illustrator 24.3.2, SVG Export Plug-In . SVG Version: 6.00 Build 0)  -->
<svg version="1.1" id="Calque_1" xmlns="http://www.w3.org/2000/svg" xmlns:xlink="http://www.w3.org/1999/xlink" x="0px" y="0px"
	 viewBox="0 0 249.4 105.2" style="enable-background:new 0 0 249.4 105.2;" xml:space="preserve">
<style type="text/css">
	.st0{fill:#FFFFFF;}
</style>
<g>
	<path class="st0" d="M52,46.3c-3.5,0-6.4,2.9-6.4,6.4s2.9,6.4,6.4,6.4s6.4-2.9,6.4-6.4S55.6,46.3,52,46.3"/>
	<path class="st0" d="M39.9,52.7c0-1.6-1.3-2.9-2.9-2.9c-1.6,0-2.9,1.3-2.9,2.9c0,1.6,1.3,2.9,2.9,2.9
		C38.7,55.6,39.9,54.3,39.9,52.7"/>
	<path class="st0" d="M67,49.8c-1.6,0-2.9,1.3-2.9,2.9c0,1.6,1.3,2.9,2.9,2.9s2.9-1.3,2.9-2.9S68.6,49.8,67,49.8"/>
	<path class="st0" d="M41.4,60.4c-0.8,0-1.5,0.3-2,0.8s-0.8,1.3-0.8,2c0,0.8,0.3,1.5,0.8,2s1.3,0.8,2,0.8c0.8,0,1.5-0.3,2-0.8
		s0.8-1.3,0.8-2c0-0.8-0.3-1.5-0.8-2S42.2,60.4,41.4,60.4"/>
	<path class="st0" d="M62.6,45c0.8,0,1.5-0.3,2-0.8s0.8-1.3,0.8-2c0-0.8-0.3-1.5-0.8-2s-1.3-0.8-2-0.8c-0.8,0-1.5,0.3-2,0.8
		s-0.8,1.3-0.8,2c0,0.8,0.3,1.5,0.8,2S61.8,45,62.6,45"/>
	<path class="st0" d="M41.4,45c0.8,0,1.5-0.3,2-0.8c1.1-1.1,1.1-3,0-4.1c-0.5-0.5-1.3-0.8-2-0.8c-0.8,0-1.5,0.3-2,0.8
		s-0.8,1.3-0.8,2c0,0.8,0.3,1.5,0.8,2C39.9,44.7,40.7,45,41.4,45"/>
	<path class="st0" d="M62.6,60.4c-0.8,0-1.5,0.3-2,0.8s-0.8,1.3-0.8,2c0,0.8,0.3,1.5,0.8,2s1.3,0.8,2,0.8c0.8,0,1.5-0.3,2-0.8
		s0.8-1.3,0.8-2s-0.3-1.5-0.8-2S63.4,60.4,62.6,60.4"/>
	<path class="st0" d="M52,34.9c-1.6,0-2.9,1.3-2.9,2.9c0,1.6,1.3,2.9,2.9,2.9c1.6,0,2.9-1.3,2.9-2.9S53.6,34.9,52,34.9"/>
	<path class="st0" d="M52,64.8c-1.6,0-2.9,1.3-2.9,2.9s1.3,2.9,2.9,2.9c1.6,0,2.9-1.3,2.9-2.9C54.9,66.1,53.6,64.8,52,64.8"/>
	<path class="st0" d="M76.4,51.1c-0.9,0-1.6,0.7-1.6,1.6c0,0.9,0.7,1.6,1.6,1.6s1.6-0.7,1.6-1.6S77.3,51.1,76.4,51.1"/>
	<path class="st0" d="M52,75.4c-0.9,0-1.6,0.7-1.6,1.6s0.7,1.6,1.6,1.6c0.9,0,1.6-0.7,1.6-1.6C53.6,76.2,52.9,75.4,52,75.4"/>
	<path class="st0" d="M52,29.9c0.9,0,1.6-0.7,1.6-1.6s-0.7-1.6-1.6-1.6c-0.9,0-1.6,0.7-1.6,1.6S51.1,29.9,52,29.9"/>
	<path class="st0" d="M68,68.7c-0.3,0.3-0.5,0.7-0.5,1.2c0,0.4,0.2,0.8,0.5,1.2c0.3,0.3,0.7,0.5,1.2,0.5c0.4,0,0.8-0.2,1.2-0.5
		c0.3-0.3,0.5-0.7,0.5-1.2c0-0.4-0.2-0.8-0.5-1.2c-0.3-0.3-0.7-0.5-1.2-0.5S68.3,68.4,68,68.7"/>
	<path class="st0" d="M68.1,34.4c-0.3,0.3-0.5,0.7-0.5,1.2c0,0.4,0.2,0.8,0.5,1.2c0.3,0.3,0.7,0.5,1.2,0.5c0.4,0,0.8-0.2,1.2-0.5
		c0.3-0.3,0.5-0.7,0.5-1.2c0-0.4-0.2-0.8-0.5-1.2c-0.3-0.3-0.7-0.5-1.2-0.5S68.4,34.1,68.1,34.4"/>
	<path class="st0" d="M74.5,60.4c-0.2,0-0.5,0-0.7,0.1c-0.6,0.2-1,0.8-1,1.5c0,0.9,0.7,1.7,1.6,1.7c0.2,0,0.5,0,0.7-0.1
		c0.6-0.2,1-0.8,1-1.5C76.1,61.1,75.4,60.4,74.5,60.4"/>
	<path class="st0" d="M61.2,31.9c0.2,0,0.5,0,0.7-0.1c0.6-0.2,1-0.8,1-1.5c0-0.4-0.1-0.8-0.4-1.2c-0.3-0.3-0.7-0.5-1.1-0.5
		c-0.2,0-0.5,0-0.7,0.1c-0.6,0.2-1,0.8-1,1.5C59.6,31.1,60.3,31.9,61.2,31.9"/>
	<path class="st0" d="M60.7,73.7c-0.2,0.1-0.3,0.2-0.5,0.3c-0.3,0.3-0.5,0.7-0.5,1.1s0.1,0.8,0.4,1.2c0.5,0.5,1.2,0.7,1.8,0.4
		c0.2-0.1,0.3-0.2,0.5-0.3c0.7-0.6,0.7-1.6,0.1-2.3C62,73.6,61.3,73.4,60.7,73.7"/>
	<path class="st0" d="M75.1,44.9c0.2-0.1,0.3-0.2,0.5-0.3c0.7-0.6,0.7-1.6,0.1-2.3c-0.5-0.5-1.2-0.7-1.8-0.4
		c-0.2,0.1-0.3,0.2-0.5,0.3c-0.7,0.6-0.7,1.6-0.1,2.3C73.8,45,74.5,45.2,75.1,44.9"/>
	<path class="st0" d="M27.6,51.1c0.9,0,1.6,0.7,1.6,1.6c0,0.9-0.7,1.6-1.6,1.6S26,53.6,26,52.7S26.7,51.1,27.6,51.1"/>
	<path class="st0" d="M36,68.7c0.3,0.3,0.5,0.7,0.5,1.2c0,0.4-0.2,0.8-0.5,1.2c-0.3,0.2-0.7,0.4-1.2,0.4c-0.4,0-0.8-0.2-1.2-0.5
		c-0.3-0.3-0.5-0.7-0.5-1.2c0-0.4,0.2-0.8,0.5-1.2c0.3-0.3,0.7-0.5,1.2-0.5C35.3,68.2,35.7,68.4,36,68.7"/>
	<path class="st0" d="M36,34.4c0.3,0.3,0.5,0.7,0.5,1.2c0,0.4-0.2,0.8-0.5,1.2c-0.3,0.3-0.7,0.5-1.2,0.5c-0.4,0-0.8-0.2-1.2-0.5
		c-0.2-0.4-0.4-0.8-0.4-1.3c0-0.4,0.2-0.8,0.5-1.2c0.3-0.2,0.7-0.4,1.1-0.4C35.3,33.9,35.7,34.1,36,34.4"/>
	<path class="st0" d="M29.5,60.4c0.2,0,0.5,0,0.7,0.1c0.6,0.2,1,0.8,1,1.5c0,0.9-0.7,1.7-1.6,1.7c-0.2,0-0.5,0-0.7-0.1
		c-0.6-0.2-1-0.8-1-1.5C27.9,61.1,28.6,60.4,29.5,60.4"/>
	<path class="st0" d="M42.8,31.9c-0.2,0-0.5,0-0.7-0.1c-0.6-0.2-1-0.8-1-1.5c0-0.4,0.1-0.8,0.4-1.2c0.3-0.3,0.7-0.5,1.1-0.5
		c0.2,0,0.5,0,0.7,0.1c0.6,0.2,1,0.8,1,1.5C44.4,31.1,43.7,31.9,42.8,31.9"/>
	<path class="st0" d="M43.3,73.7c0.2,0.1,0.3,0.2,0.5,0.3c0.3,0.3,0.5,0.7,0.5,1.1s-0.1,0.8-0.4,1.2c-0.5,0.5-1.2,0.7-1.8,0.4
		c-0.2-0.1-0.3-0.2-0.5-0.3c-0.7-0.6-0.7-1.6-0.1-2.3C42,73.6,42.7,73.4,43.3,73.7"/>
	<path class="st0" d="M28.9,44.9c-0.2-0.1-0.3-0.2-0.5-0.3c-0.7-0.6-0.7-1.6-0.1-2.3c0.5-0.5,1.2-0.7,1.8-0.4
		c0.2,0.1,0.3,0.2,0.5,0.3c0.7,0.6,0.7,1.6,0.1,2.3C30.3,45,29.5,45.2,28.9,44.9"/>
	<path class="st0" d="M92.2,58.2c2,0,3.7,0.4,4.9,0.9v3.3c-2.2-0.9-3.5-1.1-4.9-1.1c-2.8,0-3.8,2.7-3.8,6c0,3.3,1,6,3.8,6
		c1.4,0,2.7-0.2,4.9-1.1v3.3c-1.2,0.5-2.9,0.9-4.9,0.9c-5.3,0-7-4.1-7-9C85.2,62.3,86.9,58.2,92.2,58.2"/>
	<path class="st0" d="M106.3,61.3c-3,0-3.4,2.8-3.4,6c0,3.2,0.4,6,3.4,6s3.4-2.8,3.4-6C109.7,64.1,109.3,61.3,106.3,61.3
		 M108.1,57.3l-1.7-1.1l-2.1,1.1h-2.2l3.1-2.2h2.4l2.7,2.2H108.1z M106.3,76.2c-5.9,0-6.7-4.5-6.7-9s0.8-9,6.7-9
		c5.9,0,6.7,4.5,6.7,9S112.2,76.2,106.3,76.2"/>
	<polygon class="st0" points="121.9,61.6 121.9,75.9 118.7,75.9 118.7,61.6 114.4,61.6 114.4,58.6 126.2,58.6 126.2,61.6 	"/>
	<polygon class="st0" points="138.6,68.5 131.8,68.5 131.8,72.8 139.4,72.8 139.4,75.9 128.6,75.9 128.6,58.6 139.4,58.6 
		139.4,61.6 131.8,61.6 131.8,65.4 138.6,65.4 	"/>
	<path class="st0" d="M149.9,72.8h2c3.1,0,4.1-2.3,4.1-5.6c0-3.3-0.9-5.6-4.1-5.6h-2V72.8z M146.7,75.9V58.6h5.1
		c5.8,0,7.4,3.7,7.4,8.7c0,4.9-1.6,8.7-7.4,8.7L146.7,75.9L146.7,75.9z"/>
	<path class="st0" d="M161.3,64.3c0,0,1.1-2.3,0.7-5.8h3c-0.1,3.6-2.4,5.8-2.4,5.8H161.3z"/>
	<path class="st0" d="M170.9,63.9l-1.5,4.5h2.9L170.9,63.9z M163.7,75.9l6.2-17.7h2.2l6.1,17.7h-3.4l-1.5-4.4h-4.8l-1.4,4.4H163.7z"
		/>
	<polygon class="st0" points="179.5,75.9 179.5,73.8 187.6,61.6 179.9,61.6 179.9,58.6 192,58.6 192,60.6 183.8,72.8 192.3,72.8 
		192.3,75.9 	"/>
	<path class="st0" d="M204.1,70V58.6h3.2v11.7c0,5.1-4.2,6-6.4,6s-6.4-0.8-6.4-6V58.6h3.2V70c0,2.9,2.1,3.2,3.2,3.2
		C202,73.1,204.1,72.9,204.1,70"/>
	<path class="st0" d="M213.5,66h2.9c2,0,2.3-1,2.3-2.2c0-1.2-0.3-2.1-2.3-2.1h-2.9V66z M213.5,75.9h-3.2V58.6h5.7c4.6,0,6,2,6,5.2
		c0,2.2-0.6,3.8-2.5,4.6c0.3,0.7,0.8,1.5,1.2,2.3c0.8,1.6,2,3.8,2.7,5.2h-3.9l-3.3-6.8h-2.7V75.9z"/>
	<path class="st0" d="M98.9,46.6c0,4.4-2.1,5.3-5.5,5.3s-5.5-0.9-5.5-5.3V33.4h-1.3v13.1c0,5.8,3.6,6.6,6.8,6.6s6.8-0.7,6.8-6.6
		V33.4h-1.3V46.6z"/>
	<polygon class="st0" points="116.1,50 105,33.4 104.1,33.4 104.1,53 105.5,53 105.4,36.4 116.5,53 117.4,53 117.4,33.4 116,33.4 	
		"/>
	<rect x="121.9" y="33.4" class="st0" width="1.4" height="19.6"/>
	<polygon class="st0" points="134,50.6 128.1,33.4 126.6,33.4 133.5,53.1 134.5,53.1 141.4,33.4 139.9,33.4 	"/>
	<polygon class="st0" points="144.1,53 155.2,53 155.2,51.7 145.5,51.7 145.5,43.5 154.3,43.5 154.3,42.2 145.5,42.2 145.5,34.7 
		155.2,34.7 155.2,33.4 144.1,33.4 	"/>
	<path class="st0" d="M169.8,38.8c0,2.6-0.7,4.1-4.3,4.1h-5.3v-8.2h5.3C169.1,34.7,169.8,36.2,169.8,38.8 M171.1,38.8
		c0-3.2-1-5.4-6.1-5.4h-6.3V53h1.4v-8.8h4.9c0.3,0,0.5,0,0.8,0l4.6,8.8h1.6l-4.8-8.9C170.7,43.4,171.1,41.2,171.1,38.8"/>
	<path class="st0" d="M180.5,42.2c-4.1-0.5-5.1-0.9-5.1-3.7c0-1.7,0.5-3.9,5.1-3.9c1.8,0,3,0.2,4.6,0.8l0.4,0.1v-1.4l-0.2-0.1
		c-1.3-0.5-2.8-0.8-4.8-0.8c-5.3,0-6.5,2.8-6.5,5.2c0,3.9,1.9,4.5,6.2,5s5,1,5,4c0,2.9-1.9,4.4-5.8,4.4c-2.3,0-3.8-0.4-5-0.9
		l-0.4-0.1v1.4l0.2,0.1c1.2,0.5,3.5,0.9,5.2,0.9c2.7,0,7.2-0.7,7.2-5.7C186.6,43.1,184.4,42.7,180.5,42.2"/>
	<rect x="190.6" y="33.4" class="st0" width="1.4" height="19.6"/>
	<polygon class="st0" points="195.5,34.7 201,34.7 201,53 202.4,53 202.4,34.7 207.9,34.7 207.9,33.4 195.5,33.4 	"/>
	<polygon class="st0" points="220.5,29.2 218.3,29.2 215.1,32.1 216.3,32.1 	"/>
	<polygon class="st0" points="222,34.7 222,33.4 210.9,33.4 210.9,53 222,53 222,51.7 212.2,51.7 212.2,43.5 221,43.5 221,42.2 
		212.2,42.2 212.2,34.7 	"/>
</g>
</svg>
